<svg width="40" height="24" viewBox="0 0 40 24" fill="none" xmlns="http://www.w3.org/2000/svg">
  <rect width="40" height="24" rx="4" fill="#F7F7F7"/>
  <path d="M18.5 10C18.8 9.6 19 9 19 8.5C19 8.4 19 8.3 19 8.2C18.5 8.2 18 8.5 17.7 8.9C17.4 9.2 17.2 9.8 17.2 10.3C17.2 10.4 17.2 10.5 17.2 10.5C17.3 10.5 17.4 10.5 17.5 10.5C17.9 10.5 18.2 10.3 18.5 10Z" fill="black"/>
  <path d="M19 10.8C18.4 10.8 17.9 11.1 17.6 11.1C17.3 11.1 16.8 10.8 16.3 10.8C15.6 10.8 14.9 11.2 14.5 11.9C13.8 13.2 14.3 15.1 15 16.1C15.3 16.6 15.7 17.1 16.3 17.1C16.8 17.1 17 16.8 17.6 16.8C18.2 16.8 18.4 17.1 18.9 17.1C19.5 17.1 19.9 16.6 20.2 16.1C20.6 15.5 20.7 15 20.7 14.9C20.7 14.9 20.7 14.9 20.7 14.9C20.7 14.9 19.5 14.4 19.5 13.1C19.5 12 20.4 11.4 20.5 11.4C20.5 11.4 20.5 11.4 20.5 11.4C20 10.8 19.4 10.8 19 10.8Z" fill="black"/>
  <path d="M25.1 11.9C25.1 10.1 26.5 9 28 9C29.5 9 30.9 10.1 30.9 11.9C30.9 13.7 29.5 14.8 28 14.8C26.5 14.8 25.1 13.7 25.1 11.9ZM29.6 11.9C29.6 10.8 28.9 10 28 10C27.1 10 26.4 10.8 26.4 11.9C26.4 13 27.1 13.8 28 13.8C28.9 13.8 29.6 13 29.6 11.9Z" fill="black"/>
  <path d="M22.4 14.7H21.1L23.1 9.1H24.4L22.4 14.7Z" fill="black"/>
  <path d="M9.1 14.7H10.4L9.4 11.5H11.8L12 10.5H8.1L7.9 11.5H10.1L9.1 14.7Z" fill="black"/>
</svg>
