<svg width="40" height="24" viewBox="0 0 40 24" fill="none" xmlns="http://www.w3.org/2000/svg">
  <rect width="40" height="24" rx="4" fill="#F7F7F7"/>
  <path d="M25.5 7H14.5C11.5 7 9 9.5 9 12.5C9 15.5 11.5 18 14.5 18H25.5C28.5 18 31 15.5 31 12.5C31 9.5 28.5 7 25.5 7Z" fill="white"/>
  <path d="M14.5 7C11.5 7 9 9.5 9 12.5C9 15.5 11.5 18 14.5 18H20V7H14.5Z" fill="#EB001B"/>
  <path d="M25.5 7C28.5 7 31 9.5 31 12.5C31 15.5 28.5 18 25.5 18H20V7H25.5Z" fill="#F79E1B"/>
  <path d="M20 9.7C21.5 10.9 22.5 12.6 22.5 14.5C22.5 16.4 21.5 18.1 20 19.3C18.5 18.1 17.5 16.4 17.5 14.5C17.5 12.6 18.5 10.9 20 9.7Z" fill="#FF5F00"/>
</svg>
