<svg width="40" height="24" viewBox="0 0 40 24" fill="none" xmlns="http://www.w3.org/2000/svg">
  <rect width="40" height="24" rx="4" fill="#F7F7F7"/>
  <path d="M15.5 9.5C15 9.5 14.5 10 14.5 10.5L13 17C13 17.3 13.2 17.5 13.5 17.5H15.5C16 17.5 16.5 17 16.5 16.5L18 10C18 9.7 17.8 9.5 17.5 9.5H15.5Z" fill="#253B80"/>
  <path d="M23.5 9.5C23 9.5 22.5 10 22.5 10.5L21 17C21 17.3 21.2 17.5 21.5 17.5H23.5C24 17.5 24.5 17 24.5 16.5L26 10C26 9.7 25.8 9.5 25.5 9.5H23.5Z" fill="#179BD7"/>
  <path d="M19.5 9.5C19 9.5 18.5 10 18.5 10.5L17 17C17 17.3 17.2 17.5 17.5 17.5H19.5C20 17.5 20.5 17 20.5 16.5L22 10C22 9.7 21.8 9.5 21.5 9.5H19.5Z" fill="#253B80"/>
</svg>
