<svg width="40" height="24" viewBox="0 0 40 24" fill="none" xmlns="http://www.w3.org/2000/svg">
  <rect width="40" height="24" rx="4" fill="#F7F7F7"/>
  <path d="M16.4 15.7H14.2L15.6 8.3H17.8L16.4 15.7Z" fill="#00579F"/>
  <path d="M23.2 8.5C22.8 8.3 22.1 8.2 21.3 8.2C19.1 8.2 17.6 9.3 17.6 10.8C17.6 11.9 18.7 12.5 19.5 12.9C20.3 13.3 20.6 13.5 20.6 13.9C20.6 14.4 20 14.7 19.4 14.7C18.6 14.7 18.2 14.6 17.5 14.3L17.2 14.1L16.9 16C17.4 16.2 18.3 16.4 19.2 16.4C21.5 16.4 23 15.3 23 13.7C23 12.8 22.4 12.1 21.2 11.5C20.5 11.1 20 10.9 20 10.5C20 10.1 20.4 9.8 21.2 9.8C21.8 9.8 22.3 9.9 22.7 10.1L22.9 10.2L23.2 8.5Z" fill="#00579F"/>
  <path d="M26.9 12.8C27.1 12.3 27.8 10.4 27.8 10.4C27.8 10.4 27.9 10.1 28 9.8L28.1 10.3C28.1 10.3 28.5 12.3 28.6 12.8H26.9ZM29.7 8.3H28C27.5 8.3 27.1 8.4 26.9 9L23.8 15.7H26.1C26.1 15.7 26.4 14.9 26.5 14.6C26.7 14.6 29.1 14.6 29.4 14.6C29.5 15 29.6 15.7 29.6 15.7H31.7L29.7 8.3Z" fill="#00579F"/>
  <path d="M13.7 8.3L11.6 13.3L11.4 12.2C11 11 9.9 9.7 8.7 9L10.7 15.7H13L16.4 8.3H13.7Z" fill="#00579F"/>
</svg>
